<?xml version="1.0" encoding="UTF-8" standalone="no"?>
<svg
   version="1.0"
   width="110.12059pt"
   height="125.10001pt"
   viewBox="0 0 110.12059 125.10001"
   preserveAspectRatio="xMidYMid"
   id="svg2"
   xmlns="http://www.w3.org/2000/svg"
   xmlns:svg="http://www.w3.org/2000/svg">
  <defs
     id="defs2" />
  <g
     transform="matrix(0.1,0,0,-0.1,-166.48556,332.1)"
     fill="#000000"
     stroke="none"
     id="g2">
    <path
       d="m 2030,3265 c -189,-73 -371,-155 -365,-165 3,-5 23,-11 44,-15 39,-6 39,-7 50,-67 6,-37 7,-67 1,-77 -5,-9 -5,-23 0,-30 4,-8 8,-42 9,-76 1,-60 28,-282 36,-296 8,-13 80,7 79,21 -2,13 -56,279 -72,350 -3,14 -11,34 -18,46 -8,11 -17,42 -20,68 -6,44 -5,48 12,43 10,-3 46,-11 79,-17 121,-22 108,-7 100,-120 l -7,-99 29,-7 c 81,-18 118,-33 117,-45 -1,-8 -46,-124 -99,-258 -80,-200 -98,-255 -98,-297 0,-97 58,-154 158,-154 59,0 100,22 140,74 27,36 28,36 103,36 h 75 l 42,-43 c 74,-77 182,-82 244,-12 55,63 53,76 -59,404 -56,163 -104,303 -106,312 -4,11 13,28 55,55 34,21 61,44 61,49 0,6 -16,43 -35,84 -19,40 -35,78 -35,85 0,7 50,48 110,90 61,43 108,81 106,85 -3,4 -85,11 -183,15 -98,3 -230,9 -293,11 l -115,6 z m 532,-727 c 118,-345 117,-341 69,-389 -53,-52 -147,-35 -191,36 l -22,35 h -108 -108 l -21,-35 c -31,-53 -76,-77 -135,-72 -67,6 -96,38 -96,108 0,39 20,100 96,291 54,134 101,248 106,253 6,7 35,-4 83,-29 l 75,-40 22,20 c 13,11 44,39 70,62 26,23 51,42 56,42 5,0 52,-127 104,-282 z"
       id="path1" />
    <path
       d="m 2307,2470 -18,-30 h 31 c 26,0 29,3 22,18 -5,9 -11,23 -13,30 -3,7 -12,0 -22,-18 z"
       id="path2" />
  </g>
</svg>
